HIERARCHY
ROOT Pelvis
{
	OFFSET 0.000000 0.000000 0.000000
	CHANNELS 6 Xposition Yposition Zposition Zrotation Yrotation Xrotation 
	JOINT Left_hip
	{
		OFFSET 0.068973 -0.091024 -0.007589
		CHANNELS 3 Zrotation Yrotation Xrotation
		JOINT Left_knee
		{
			OFFSET 0.036482 -0.391037 -0.003979
			CHANNELS 3 Zrotation Yrotation Xrotation
			JOINT Left_ankle
			{
				OFFSET -0.012239 -0.415469 -0.043440
				CHANNELS 3 Zrotation Yrotation Xrotation
				JOINT Left_foot
				{
					OFFSET 0.023806 -0.058558 0.118702
					CHANNELS 3 Zrotation Yrotation Xrotation
					End Site
					{
						OFFSET 0.000000 0.000000 0.000000
					}
				}
			}
		}
	}
	JOINT Right_hip
	{
		OFFSET -0.066552 -0.090468 -0.003847
		CHANNELS 3 Zrotation Yrotation Xrotation
		JOINT Right_knee
		{
			OFFSET -0.042435 -0.398340 -0.006400
			CHANNELS 3 Zrotation Yrotation Xrotation
			JOINT Right_ankle
			{
				OFFSET 0.014931 -0.415421 -0.041327
				CHANNELS 3 Zrotation Yrotation Xrotation
				JOINT Right_foot
				{
					OFFSET -0.021472 -0.049410 0.121889
					CHANNELS 3 Zrotation Yrotation Xrotation
					End Site
					{
						OFFSET 0.000000 0.000000 0.000000
					}
				}
			}
		}
	}
	JOINT Spine1
	{
		OFFSET -0.002904 0.105700 -0.022855
		CHANNELS 3 Zrotation Yrotation Xrotation
		JOINT Spine2
		{
			OFFSET 0.004179 0.132554 -0.002501
			CHANNELS 3 Zrotation Yrotation Xrotation
			JOINT Spine3
			{
				OFFSET 0.001987 0.049603 0.025988
				CHANNELS 3 Zrotation Yrotation Xrotation
				JOINT Neck
				{
					OFFSET -0.003935 0.211336 -0.045638
					CHANNELS 3 Zrotation Yrotation Xrotation
					JOINT Head
					{
						OFFSET 0.003906 0.065991 0.051018
						CHANNELS 3 Zrotation Yrotation Xrotation
						End Site
						{
							OFFSET 0.000000 0.000000 0.000000
						}
					}
				}
				JOINT Left_collar
				{
					OFFSET 0.072882 0.117751 -0.036270
					CHANNELS 3 Zrotation Yrotation Xrotation
					JOINT Left_shoulder
					{
						OFFSET 0.082118 0.032630 -0.005771
						CHANNELS 3 Zrotation Yrotation Xrotation
						JOINT Left_elbow
						{
							OFFSET 0.263305 -0.015144 -0.028095
							CHANNELS 3 Zrotation Yrotation Xrotation
							JOINT Left_wrist
							{
								OFFSET 0.250741 0.010115 -0.000759
								CHANNELS 3 Zrotation Yrotation Xrotation
								JOINT Left_palm
								{
									OFFSET 0.080683 -0.009989 -0.013613
									CHANNELS 3 Zrotation Yrotation Xrotation
									End Site
									{
										OFFSET 0.000000 0.000000 0.000000
									}
								}
							}
						}
					}
				}
				JOINT Right_collar
				{
					OFFSET -0.074811 0.116132 -0.040385
					CHANNELS 3 Zrotation Yrotation Xrotation
					JOINT Right_shoulder
					{
						OFFSET -0.085089 0.032943 -0.007484
						CHANNELS 3 Zrotation Yrotation Xrotation
						JOINT Right_elbow
						{
							OFFSET -0.254763 -0.014219 -0.020321
							CHANNELS 3 Zrotation Yrotation Xrotation
							JOINT Right_wrist
							{
								OFFSET -0.256597 0.009233 -0.005063
								CHANNELS 3 Zrotation Yrotation Xrotation
								JOINT Right_palm
								{
									OFFSET -0.080528 -0.007219 -0.010379
									CHANNELS 3 Zrotation Yrotation Xrotation
									End Site
									{
										OFFSET 0.000000 0.000000 0.000000
									}
								}
							}
						}
					}
				}
			}
		}
	}
}
MOTION
Frames: 10
Frame Time: 0.100000
0.000000 0.000000 0.000000 175.017681 25.032948 -21.480025 4.526578 6.874082 19.064302 -2.487629 1.040216 -7.060278 -3.193263 9.087132 -0.218366 2.524123 8.476029 -2.453812 -0.161834 -5.015237 17.436767 3.416467 -3.372918 -5.410948 2.985774 -5.928900 -2.436963 -1.083190 -2.748728 4.876386 0.335823 1.204199 -3.304345 0.678793 -3.436989 15.427854 0.376352 -1.200119 -1.788241 1.146922 5.131617 7.624628 1.861151 -4.539219 -13.480027 -27.677613 -6.637658 10.104802 -50.025538 -0.259660 8.596617 3.735418 -22.349668 11.697750 -14.373987 -8.802184 13.672216 -10.122385 -3.537200 -23.734656 25.910033 13.049017 9.652660 52.569614 0.388456 13.106126 -6.991592 23.876262 7.467056 6.723019 7.057235 8.580283 11.253961 3.612900 -8.181609 
0.000703 0.000571 -0.001285 175.047285 25.088803 -21.491152 4.411069 7.014669 19.255835 -2.360789 0.697105 -7.578885 -3.113428 9.534155 0.005548 2.284143 8.134757 -2.628120 -0.117778 -4.851466 17.111520 3.320777 -3.237247 -4.975577 2.844725 -6.235509 -2.569718 -0.864679 -2.746855 4.874026 0.425568 1.115745 -3.033248 0.563275 -3.229299 15.341785 0.299659 -1.059053 -1.512686 0.873344 4.760784 7.604213 1.941148 -4.359153 -13.471303 -27.519501 -5.701784 9.990601 -50.544951 0.315293 8.511687 4.145885 -18.571833 10.891607 -15.039250 -8.573427 13.543244 -9.920602 -3.537296 -23.627580 25.885739 12.369089 9.740666 53.474148 -0.576758 13.133255 -6.617228 20.300522 7.319204 7.222811 6.724401 8.040493 11.192255 3.640925 -7.889347 
0.002055 0.000764 -0.002242 175.001485 25.253937 -21.493755 4.446324 7.005968 19.238736 -2.341098 0.504019 -7.837599 -3.123027 9.669555 0.160070 2.255263 7.922223 -2.699573 -0.033609 -4.830388 16.835103 3.313005 -3.322984 -4.684882 2.668308 -6.290940 -2.580420 -0.533004 -2.897477 4.936087 0.312037 1.010593 -2.855393 0.591122 -3.201146 15.373220 0.345919 -1.110118 -1.433829 0.795190 4.615055 7.659473 1.987660 -4.277520 -13.417386 -27.417844 -5.211094 9.896585 -50.555642 0.448798 8.691697 4.061432 -18.708737 11.159850 -15.163017 -8.916878 13.579282 -9.785512 -3.430448 -23.428260 25.956195 11.734534 9.776850 53.515677 -1.335123 13.001870 -6.572003 19.112004 7.331496 7.373950 6.754873 7.859549 11.032602 3.600646 -7.670101 
0.003209 0.000612 -0.003402 174.989025 25.473987 -21.620518 4.474470 6.871575 19.070856 -2.402999 0.616200 -7.500998 -3.166964 9.469031 0.152294 2.333390 7.986896 -2.717468 -0.041326 -4.919431 17.008886 3.338319 -3.481834 -4.906173 2.602028 -6.159521 -2.443217 -0.490948 -3.072564 4.999632 0.320320 0.954297 -2.689943 0.505095 -3.367314 15.419615 0.326395 -1.308572 -1.335127 0.724639 4.644048 8.010804 1.996150 -4.278232 -13.326313 -27.403978 -5.592060 9.945182 -50.462685 -0.307531 8.628581 4.166824 -20.945298 11.180422 -14.767758 -9.312617 13.177893 -9.840790 -3.281788 -23.341985 25.702820 11.637312 9.876437 53.418110 -1.444528 12.763838 -6.849486 20.004037 7.017125 7.378069 6.862079 7.267187 10.901661 3.519562 -7.655618 
0.004542 0.000738 -0.006091 175.082358 25.436059 -21.643114 4.447651 6.812670 18.764188 -2.531028 0.918509 -7.117125 -3.207348 9.160117 0.100349 2.499117 8.160569 -2.622334 -0.149100 -4.894963 16.997230 3.426205 -3.611990 -5.089806 2.671111 -5.906260 -2.308881 -0.694617 -3.043876 5.017907 0.381250 0.860591 -2.400714 0.439430 -3.588996 15.517237 0.308201 -1.489665 -1.444826 0.605318 4.950427 8.079694 1.906175 -4.276209 -13.241481 -27.502687 -6.840657 10.093682 -50.215025 -1.583955 8.592719 4.179739 -24.211043 11.271854 -14.014971 -9.614641 12.905612 -9.983383 -3.217621 -23.264549 25.490842 12.341239 10.069993 52.783805 -0.800521 12.609843 -7.169066 21.729290 6.886878 7.233970 6.916854 7.385566 10.831318 3.524253 -7.858436 
0.006394 0.001143 -0.008749 175.130559 25.067917 -21.541565 4.576127 6.816787 18.695642 -2.651474 1.160522 -7.380062 -3.227923 8.893941 0.151275 2.662175 8.308433 -2.499289 -0.056400 -4.805085 16.328542 3.424816 -3.840682 -4.420837 2.667638 -5.526228 -2.443518 -0.827476 -3.166592 5.124082 0.487213 0.674519 -2.068454 0.508625 -3.727229 15.368174 0.377889 -1.560626 -1.730908 0.484485 5.200237 8.218097 1.828203 -4.257901 -13.167712 -27.347868 -8.283462 10.160928 -50.056523 -2.725203 8.857445 4.106681 -27.834209 11.542717 -13.187370 -9.921192 12.653101 -10.341060 -3.298886 -23.300861 25.071853 13.328046 10.149528 52.139302 0.001682 12.484825 -7.690850 23.916482 6.521002 7.074124 7.159405 7.112072 10.865409 3.525817 -8.095404 
0.009842 0.001301 -0.009445 175.226634 24.676679 -21.379790 4.711972 6.842351 18.751952 -2.639769 1.335939 -7.845953 -3.272192 8.727682 0.337361 2.803045 8.469064 -2.366789 0.197449 -4.715243 15.648450 3.307876 -4.116374 -3.663109 2.686955 -5.307341 -2.666404 -1.046051 -3.201637 5.258699 0.318423 0.448848 -1.907781 0.637945 -3.868953 15.124409 0.525467 -1.670807 -1.958375 0.422740 5.400514 8.400986 1.761429 -4.383994 -13.275306 -26.860515 -9.124296 10.005411 -49.819727 -3.304591 9.007249 4.196109 -30.982036 11.642123 -12.519508 -10.014939 12.582330 -10.705454 -3.443087 -23.336707 24.742700 13.912218 9.926187 51.726030 0.600796 12.396699 -8.209044 26.205842 6.298065 6.925170 7.387531 7.119062 11.016520 3.538654 -8.271294 
0.014107 0.000961 -0.008319 175.300121 24.687607 -21.623340 4.808311 6.663869 18.288608 -2.495096 1.575778 -6.548521 -3.284845 8.594069 0.150720 2.818130 8.771188 -2.508754 0.418857 -4.602084 15.901053 3.275915 -4.126957 -3.618393 2.710197 -5.379167 -2.708406 -1.421568 -3.161429 5.305410 0.014989 0.442139 -1.906162 0.685334 -4.128150 15.168991 0.604645 -1.853546 -1.941755 0.540946 4.987249 8.990939 2.161207 -5.132897 -13.624310 -26.240339 -9.563697 9.930604 -49.440541 -3.577670 8.818469 4.392568 -32.309140 11.311065 -12.711413 -10.016956 12.649668 -10.902248 -3.452395 -23.401755 24.369508 14.248030 9.665073 51.928558 0.632415 12.354127 -8.524233 28.078909 6.265158 6.954699 7.669947 7.059157 11.150480 3.429413 -8.222459 
0.017682 0.000563 -0.006225 175.452286 24.681963 -21.938865 4.845027 6.555398 17.991263 -2.336273 1.758504 -5.270524 -3.143008 8.610213 -0.041453 2.474346 9.127320 -2.539102 0.604684 -4.424713 16.070371 3.196877 -4.094213 -3.196933 2.004771 -5.388498 -2.816812 -0.536462 -3.564576 5.636741 -0.224731 0.569447 -2.431455 0.776492 -4.154910 15.914902 0.341757 -1.801072 -2.175265 1.048948 1.919536 10.558359 3.508060 -8.044246 -13.874834 -26.094324 -9.189231 9.718039 -49.013094 -3.789977 8.979063 4.926682 -30.942557 10.185294 -13.657871 -10.140116 13.421445 -10.667610 -3.267015 -23.264114 24.386837 14.524220 9.418651 52.173925 0.146161 12.848936 -8.005891 27.814939 6.978025 7.088945 8.057493 7.401180 10.865006 3.183836 -7.712938 
0.020963 0.000243 -0.004436 175.513400 24.853811 -22.281587 4.951260 6.389213 17.432618 -2.252766 1.965915 -3.585744 -3.153069 8.553535 -0.322144 2.207626 9.441426 -2.527317 0.773471 -4.291195 16.602334 3.231137 -3.918594 -3.416917 1.116321 -5.480565 -2.791116 0.508379 -4.115718 6.066223 -0.564598 0.719177 -2.965783 0.986331 -4.237935 16.795191 0.080765 -1.888599 -2.188273 1.714511 -4.080329 12.028943 5.831427 -13.538479 -14.421316 -26.208814 -8.062525 9.864462 -49.104925 -3.819890 9.107718 5.479799 -28.560908 8.952085 -14.643911 -10.208599 13.958151 -10.038408 -2.773370 -22.974476 24.603342 14.695719 9.018765 52.514815 -0.445448 13.335717 -7.230546 25.914233 7.823878 6.979702 8.132776 7.680642 10.047984 2.744275 -6.976486 
